<?xml version="1.0" standalone="no"?>
<!DOCTYPE svg PUBLIC "-//W3C//DTD SVG 20010904//EN"
 "http://www.w3.org/TR/2001/REC-SVG-20010904/DTD/svg10.dtd">
<svg version="1.0" xmlns="http://www.w3.org/2000/svg"
 width="600.000000pt" height="600.000000pt" viewBox="0 0 600.000000 600.000000"
 preserveAspectRatio="xMidYMid meet">
<metadata>
Created by potrace 1.14, written by Peter Selinger 2001-2017
</metadata>
<g transform="translate(0.000000,600.000000) scale(0.100000,-0.100000)"
fill="#000000" stroke="none">
<path d="M0 3000 l0 -3000 3000 0 3000 0 0 3000 0 3000 -3000 0 -3000 0 0
-3000z m4726 1580 c5 -5 32 -12 59 -15 61 -7 125 -25 125 -36 0 -4 -14 -10
-30 -14 -33 -7 -110 -73 -110 -95 0 -7 -7 -21 -16 -31 -16 -18 -17 -27 -29
-168 -4 -41 -13 -87 -21 -102 -8 -16 -14 -35 -14 -42 0 -8 -17 -48 -37 -88
-38 -75 -149 -198 -238 -264 -21 -17 -46 -37 -55 -45 -8 -8 -49 -35 -90 -59
-41 -24 -87 -52 -102 -62 -15 -11 -37 -19 -49 -19 -14 0 -19 -5 -16 -14 4 -10
-4 -12 -34 -9 -30 4 -40 1 -45 -11 -4 -11 -13 -14 -25 -11 -24 8 -61 -3 -54
-16 4 -5 -14 -9 -39 -9 -25 0 -46 -4 -46 -10 0 -5 -12 -10 -27 -10 -32 0 -56
-13 -51 -26 1 -5 -7 -10 -20 -12 -13 -2 -26 -10 -29 -18 -3 -8 -18 -14 -33
-14 -16 0 -31 -4 -35 -9 -3 -5 -19 -12 -35 -16 -17 -4 -30 -11 -30 -16 0 -5
-9 -9 -19 -9 -11 0 -23 -4 -26 -10 -3 -5 -15 -10 -26 -10 -10 0 -19 -4 -19 -9
0 -10 -14 -18 -90 -57 -19 -10 -40 -23 -47 -30 -6 -6 -24 -9 -39 -6 -25 5 -26
3 -20 -23 7 -26 6 -27 -10 -14 -16 13 -17 12 -12 -9 6 -22 -14 -76 -33 -88
-13 -8 -3 -56 23 -114 26 -59 47 -107 65 -150 8 -19 18 -44 23 -55 64 -154 97
-349 112 -658 12 -244 4 -406 -27 -562 -9 -44 -20 -105 -24 -135 -5 -30 -11
-62 -14 -70 -3 -8 -13 -51 -22 -95 -22 -107 -41 -148 -75 -168 -37 -22 -77
-22 -89 1 -10 20 -5 134 11 212 22 110 47 490 31 490 -5 0 -10 -14 -11 -31 -1
-17 -9 -38 -17 -46 -8 -8 -15 -26 -15 -41 0 -14 -4 -39 -9 -56 -9 -29 -22 -81
-43 -171 -5 -22 -13 -60 -17 -85 -9 -49 -27 -127 -42 -176 -5 -17 -9 -38 -9
-47 0 -22 -14 -22 -35 -1 -10 11 -14 25 -10 38 21 69 37 136 42 169 3 20 9 40
14 43 5 3 9 20 9 38 0 18 7 41 15 52 8 10 15 36 15 56 0 20 5 40 10 43 6 3 10
19 10 35 0 16 5 41 12 57 6 15 15 53 20 83 19 115 44 469 41 570 -5 165 -20
322 -32 353 -6 16 -11 41 -11 57 0 16 -4 32 -10 35 -5 3 -12 28 -16 56 -4 27
-11 52 -15 55 -5 3 -9 19 -9 35 0 17 -7 53 -16 80 -13 38 -22 51 -43 57 -43
12 -229 8 -243 -6 -7 -7 -27 -12 -44 -12 -18 0 -36 -4 -39 -10 -3 -5 -18 -10
-32 -10 -23 0 -69 -16 -115 -41 -10 -5 -22 -9 -28 -9 -15 0 -152 -86 -185
-117 -16 -15 -47 -41 -68 -56 -21 -16 -55 -46 -77 -68 -21 -21 -43 -39 -49
-39 -6 0 -11 -4 -11 -10 0 -5 -5 -10 -11 -10 -6 0 -25 -11 -43 -25 -18 -14
-37 -25 -43 -25 -5 0 -35 -15 -66 -34 -32 -19 -67 -38 -80 -42 -12 -4 -36 -17
-53 -30 -17 -13 -44 -24 -59 -24 -16 0 -36 -6 -44 -14 -20 -17 -151 -32 -151
-17 0 7 -22 11 -54 11 -52 0 -81 12 -54 23 7 3 -2 6 -19 6 -26 1 -33 5 -33 21
0 16 -7 20 -30 20 -16 0 -30 -4 -30 -10 0 -5 -5 -10 -12 -10 -6 0 -20 -8 -30
-17 -12 -11 -37 -17 -71 -17 -39 -1 -60 -7 -81 -23 -16 -13 -40 -23 -53 -23
-14 0 -21 -4 -18 -10 3 -5 -1 -10 -10 -10 -9 0 -24 -13 -33 -30 -9 -16 -24
-30 -32 -30 -9 0 -21 -5 -27 -11 -7 -7 -19 -9 -27 -6 -21 8 -21 63 -1 83 8 9
15 26 15 39 0 13 5 27 10 30 6 3 10 19 10 36 0 16 4 29 10 29 5 0 12 16 16 35
3 19 10 38 15 41 5 3 9 14 9 25 0 10 4 27 10 37 22 39 60 134 60 148 0 9 6 28
14 42 8 15 22 44 31 65 9 20 20 37 25 37 6 0 10 6 10 14 0 15 78 102 201 226
87 87 197 168 279 205 19 9 48 23 63 31 16 8 37 14 47 14 10 0 22 5 25 10 3 6
17 10 31 10 14 0 37 6 52 14 15 7 47 14 72 15 25 1 101 5 170 10 75 6 129 6
134 0 6 -5 23 -9 40 -9 32 0 144 -28 161 -40 10 -8 49 -30 125 -72 19 -11 53
-30 75 -44 22 -13 50 -30 63 -36 12 -6 22 -15 22 -20 0 -4 5 -8 11 -8 7 0 17
-7 23 -15 16 -20 126 -76 138 -69 5 3 15 -2 22 -12 10 -13 15 -14 21 -5 4 7 2
18 -4 24 -16 16 -14 44 5 51 20 8 74 -20 74 -39 0 -8 5 -15 10 -15 6 0 14 -8
17 -17 9 -23 35 -53 46 -53 5 0 6 67 1 153 -10 206 -9 428 4 507 16 101 34
170 43 170 5 0 9 14 9 30 0 17 5 30 10 30 6 0 10 7 10 15 0 17 46 94 65 110 7
6 19 21 28 35 26 39 150 160 164 160 7 0 13 4 13 8 0 7 78 50 120 66 8 3 22
10 30 15 28 18 131 61 143 61 7 0 17 4 22 8 6 5 39 17 75 27 36 10 70 22 75
25 6 4 30 10 55 14 25 3 65 10 90 15 64 12 554 13 566 1z m-829 -1136 c-3 -3
-12 -4 -19 -1 -8 3 -5 6 6 6 11 1 17 -2 13 -5z m-2490 -1070 c-3 -3 -12 -4
-19 -1 -8 3 -5 6 6 6 11 1 17 -2 13 -5z m-227 -18 c0 -11 -19 -15 -25 -6 -3 5
1 10 9 10 9 0 16 -2 16 -4z m-149 -82 c-3 -38 5 -43 25 -16 9 11 13 13 14 4 0
-7 -7 -21 -16 -30 -15 -14 -17 -14 -25 1 -5 9 -15 15 -22 13 -6 -1 -9 -1 -4 1
4 3 7 17 7 32 0 28 9 45 19 35 3 -3 4 -21 2 -40z"/>
<path d="M3220 3101 c0 -5 7 -11 15 -15 8 -3 15 -1 15 3 0 5 -7 11 -15 15 -8
3 -15 1 -15 -3z"/>
</g>
</svg>
